<svg width="215" height="18" viewBox="0 0 215 18" fill="none" xmlns="http://www.w3.org/2000/svg">
<path d="M0.8 17V16.58L2.64 16.28V1.72L0.8 1.44V1H6.68V1.44L4.84 1.72V16.28L6.68 16.58V17H0.8ZM18.3405 17V16.58L20.2005 15.78V2.22L18.3405 1.44V1H22.0605L30.6805 13.08V2.22L28.8205 1.44V1H33.0805V1.44L31.1805 2.22V17H30.6805L20.7005 2.98V15.78L22.6205 16.58V17H18.3405ZM50.5495 17.4L44.7895 1.72L43.1895 1.44V1H49.0495V1.44L47.1695 1.68L51.5695 13.66L55.8895 2.34L53.5895 1.44V1H57.8895V1.44L56.4295 2.32L50.7095 17.4H50.5495ZM68.1828 17V16.58L70.0228 16.28V1.72L68.1828 1.44V1H74.0628V1.44L72.2228 1.72V16.28L74.0628 16.58V17H68.1828ZM88.9233 17V16.58L90.7633 16.28V1.5H87.4633L85.9433 5.46H85.3633V1H98.3833V5.46H97.7833L96.2833 1.5H92.9633V16.28L94.8033 16.58V17H88.9233ZM106.901 17V16.58L108.861 15.78L114.641 0.599999H114.961L120.421 16.28L122.261 16.58V17H116.381V16.58L118.021 16.32L116.321 11.58H111.001L109.381 15.78L111.181 16.58V17H106.901ZM111.161 11.16H116.181L113.781 4.12L111.161 11.16ZM134.49 17V16.58L136.33 16.28V1.5H133.03L131.51 5.46H130.93V1H143.95V5.46H143.35L141.85 1.5H138.53V16.28L140.37 16.58V17H134.49ZM155.234 17V16.58L157.074 16.28V1.72L155.234 1.44V1H161.114V1.44L159.274 1.72V16.28L161.114 16.58V17H155.234ZM180.534 17.4C179.081 17.4 177.781 17.0467 176.634 16.34C175.487 15.6333 174.594 14.6467 173.954 13.38C173.314 12.1 172.994 10.64 172.994 9C172.994 7.36 173.314 5.90667 173.954 4.64C174.594 3.36 175.487 2.36667 176.634 1.66C177.781 0.953333 179.081 0.599999 180.534 0.599999C181.987 0.599999 183.287 0.953333 184.434 1.66C185.581 2.36667 186.474 3.36 187.114 4.64C187.754 5.90667 188.074 7.36 188.074 9C188.074 10.64 187.754 12.1 187.114 13.38C186.474 14.6467 185.581 15.6333 184.434 16.34C183.287 17.0467 181.987 17.4 180.534 17.4ZM180.534 16.94C181.494 16.94 182.354 16.6867 183.114 16.18C183.887 15.6733 184.494 14.94 184.934 13.98C185.374 13.0067 185.594 11.86 185.594 10.54V7.46C185.594 6.14 185.374 5 184.934 4.04C184.494 3.06667 183.887 2.32667 183.114 1.82C182.354 1.31333 181.494 1.06 180.534 1.06C179.561 1.06 178.694 1.31333 177.934 1.82C177.174 2.32667 176.574 3.06667 176.134 4.04C175.694 5 175.474 6.14 175.474 7.46V10.54C175.474 11.86 175.694 13.0067 176.134 13.98C176.574 14.94 177.174 15.6733 177.934 16.18C178.694 16.6867 179.561 16.94 180.534 16.94ZM200.02 17V16.58L201.88 15.78V2.22L200.02 1.44V1H203.74L212.36 13.08V2.22L210.5 1.44V1H214.76V1.44L212.86 2.22V17H212.36L202.38 2.98V15.78L204.3 16.58V17H200.02Z" fill="#E8BF63"/>
</svg>
